<svg width="1440" height="444" viewBox="0 0 1440 444" fill="none" xmlns="http://www.w3.org/2000/svg">
<g filter="url(#filter0_d_2_112)">
<path d="M1265.93 89.6075C1407.06 103.353 1546.79 149.173 1566.35 216.375C1585.91 284.339 1483.91 372.923 1528.62 476.016C1573.34 579.874 1764.76 696.713 1761.97 780.714C1760.57 865.481 1567.75 916.645 1381.91 923.518C1196.07 930.391 1017.22 893.736 873.297 862.426C727.98 831.117 616.197 805.151 565.895 755.514C515.593 705.113 526.771 631.802 416.386 579.11C306 525.655 75.4483 494.344 -44.7181 424.088C-164.885 354.595 -173.268 246.921 -100.609 159.864C-26.5535 72.807 129.942 5.60542 300.411 0.259835C470.88 -4.3221 655.321 52.952 818.803 72.807C982.285 92.6621 1124.81 75.098 1265.93 89.6075Z" fill="url(#paint0_radial_2_112)"/>
</g>
<defs>
<filter id="filter0_d_2_112" x="-151" y="0" width="1917" height="932.358" filterUnits="userSpaceOnUse" color-interpolation-filters="sRGB">
<feFlood flood-opacity="0" result="BackgroundImageFix"/>
<feColorMatrix in="SourceAlpha" type="matrix" values="0 0 0 0 0 0 0 0 0 0 0 0 0 0 0 0 0 0 127 0" result="hardAlpha"/>
<feOffset dy="4"/>
<feGaussianBlur stdDeviation="2"/>
<feComposite in2="hardAlpha" operator="out"/>
<feColorMatrix type="matrix" values="0 0 0 0 0 0 0 0 0 0 0 0 0 0 0 0 0 0 0.25 0"/>
<feBlend mode="normal" in2="BackgroundImageFix" result="effect1_dropShadow_2_112"/>
<feBlend mode="normal" in="SourceGraphic" in2="effect1_dropShadow_2_112" result="shape"/>
</filter>
<radialGradient id="paint0_radial_2_112" cx="0" cy="0" r="1" gradientUnits="userSpaceOnUse" gradientTransform="translate(807.5 462.179) scale(954.5 462.179)">
<stop stop-color="#FFC2E9"/>
<stop offset="1" stop-color="#CE0785"/>
</radialGradient>
</defs>
</svg>
