<svg width="871" height="1049" viewBox="0 0 871 1049" fill="none" xmlns="http://www.w3.org/2000/svg">
<g clip-path="url(#clip0_2_132)">
<path d="M694.313 -94.7332C762.164 -96.0202 837.742 -72.0534 879.625 -14.2559C921.633 42.7982 929.782 132.429 934.94 204.229C940.511 275.796 943.09 329.533 956.005 399.646C969.207 470.27 992.619 558.015 960.551 575.446C928.359 593.621 841.387 541.76 772.991 550.758C704.306 559.246 655.186 629.382 590.66 644.272C526.422 659.673 446.654 620.571 415.876 554.486C384.973 489.143 403.348 397.326 381.718 301.171C360.502 204.783 299.569 104.567 314.316 47.7789C328.362 -9.28612 418.088 -22.9225 492.644 -44.1484C567.075 -64.6309 626.749 -92.9359 694.313 -94.7332Z" fill="url(#paint0_linear_2_132)"/>
<ellipse cx="5.71354" cy="5.41833" rx="5.71354" ry="5.41833" transform="matrix(0.878143 0.478399 -0.290425 0.956898 484.883 367.849)" fill="black"/>
<ellipse cx="5.71354" cy="5.41833" rx="5.71354" ry="5.41833" transform="matrix(0.878143 0.478399 -0.290425 0.956898 647.261 456.31)" fill="black"/>
<path d="M497.372 340.12C500.282 331.567 540.2 346.558 586.531 373.604C632.862 400.65 668.061 429.509 665.151 438.062C662.241 446.615 630.266 408.28 583.935 381.234C537.604 354.188 494.462 348.673 497.372 340.12Z" fill="#FF99E4"/>
</g>
<defs>
<linearGradient id="paint0_linear_2_132" x1="461.906" y1="-59.8889" x2="854.421" y2="635.367" gradientUnits="userSpaceOnUse">
<stop stop-color="#D2BFDC"/>
<stop offset="1" stop-color="#CF8DF2"/>
</linearGradient>
<clipPath id="clip0_2_132">
<rect width="947.911" height="1172.25" fill="white" transform="translate(0 28.0169) rotate(-29.4475)"/>
</clipPath>
</defs>
</svg>
