<svg width="1440" height="2241" viewBox="0 0 1440 2241" fill="none" xmlns="http://www.w3.org/2000/svg">
<g clip-path="url(#clip0_2_156)">
<path d="M-318.728 509.371C-258.068 326.433 -223.918 154.545 -111.297 44.0108C2.64981 -67.0759 195.538 -115.68 384.017 -223.388C571.17 -330.543 755.71 -496.225 918.712 -504.551C1081.72 -512.877 1223.65 -362.717 1339.89 -225.691C1456.59 -87.5369 1548.07 38.6117 1580.5 176.126C1612.92 313.64 1588.09 463.096 1548.89 607.942C1509.23 751.66 1457.84 889.662 1382.85 1049.43C1308.34 1210.32 1210.22 1392.97 1059.15 1478.46C906.292 1563.37 698.217 1549.42 520.201 1503.06C343.509 1456.15 194.609 1375.13 19.9677 1299.55C-155.144 1222.83 -355.997 1151.55 -411.513 1018.36C-468.355 885.722 -379.858 691.181 -318.728 509.371Z" fill="url(#paint0_linear_2_156)"/>
</g>
<defs>
<linearGradient id="paint0_linear_2_156" x1="-396.015" y1="1055.57" x2="1606.75" y2="220.773" gradientUnits="userSpaceOnUse">
<stop stop-color="#AE0089"/>
<stop offset="0.0001" stop-color="#FDDEF6"/>
<stop offset="1" stop-color="#F867D9"/>
</linearGradient>
<clipPath id="clip0_2_156">
<rect width="2445.69" height="2872.13" fill="white" transform="translate(-165.055 2240.45) rotate(-112.627)"/>
</clipPath>
</defs>
</svg>
