<svg width="349" height="358" viewBox="0 0 349 358" fill="none" xmlns="http://www.w3.org/2000/svg">
<g clip-path="url(#clip0_2_101)">
<path d="M276.81 24.5895C303.612 42.4335 322.871 71.1822 334.783 102.112C346.497 132.843 350.865 165.755 348.284 198.866C345.504 231.977 335.974 265.484 316.12 292.25C296.266 319.016 265.89 338.842 232.535 349.351C198.982 360.057 162.451 361.247 130.089 350.54C97.9261 339.636 70.1307 316.637 47.2988 289.871C24.2683 262.906 6.20124 231.977 1.43631 199.263C-3.52716 166.35 4.81146 131.654 19.7019 100.129C34.5923 68.803 56.233 40.6491 84.227 23.3999C112.221 6.34891 146.767 -0.193905 181.312 0.00436161C215.66 0.202629 250.007 6.74544 276.81 24.5895Z" fill="#C26ECD"/>
<path d="M79.024 165.648C78.712 166.296 78.424 166.98 78.16 167.7C77.896 168.42 77.656 169.08 77.44 169.68C76.936 171.048 76.336 172.524 75.64 174.108C74.968 175.692 74.212 177.252 73.372 178.788C72.556 180.3 71.656 181.668 70.672 182.892C69.664 184.164 68.44 185.472 67 186.816C65.584 188.136 64.024 189.372 62.32 190.524C60.64 191.652 58.876 192.588 57.028 193.332L52.924 189.12C54.796 188.472 56.572 187.668 58.252 186.708C59.932 185.748 61.48 184.668 62.896 183.468C64.312 182.268 65.548 181.032 66.604 179.76C67.756 178.368 68.776 176.796 69.664 175.044C70.576 173.268 71.344 171.444 71.968 169.572C72.616 167.7 73.096 165.912 73.408 164.208L79.024 165.648ZM88.312 175.332C88.744 175.356 89.296 175.392 89.968 175.44C90.64 175.464 91.336 175.488 92.056 175.512C92.8 175.536 93.484 175.548 94.108 175.548C94.708 175.548 95.452 175.548 96.34 175.548C97.228 175.548 98.188 175.548 99.22 175.548C100.276 175.548 101.356 175.548 102.46 175.548C103.588 175.548 104.704 175.548 105.808 175.548C106.912 175.548 107.956 175.548 108.94 175.548C109.924 175.548 110.8 175.548 111.568 175.548C112.36 175.548 112.984 175.548 113.44 175.548C114.28 175.548 115.072 175.524 115.816 175.476C116.56 175.404 117.172 175.356 117.652 175.332V180.984C117.244 180.96 116.632 180.924 115.816 180.876C115 180.828 114.208 180.804 113.44 180.804C112.984 180.804 112.36 180.804 111.568 180.804C110.776 180.804 109.888 180.804 108.904 180.804C107.92 180.804 106.876 180.804 105.772 180.804C104.692 180.804 103.588 180.804 102.46 180.804C101.332 180.804 100.24 180.804 99.184 180.804C98.152 180.804 97.192 180.804 96.304 180.804C95.44 180.804 94.708 180.804 94.108 180.804C93.076 180.804 92.02 180.828 90.94 180.876C89.86 180.9 88.984 180.936 88.312 180.984V175.332ZM155.308 169.32C155.044 169.608 154.804 169.872 154.588 170.112C154.396 170.352 154.228 170.592 154.084 170.832C153.364 171.984 152.512 173.232 151.528 174.576C150.544 175.92 149.452 177.276 148.252 178.644C147.052 180.012 145.78 181.332 144.436 182.604C143.116 183.876 141.748 185.028 140.332 186.06L136.768 182.712C137.968 181.896 139.096 180.996 140.152 180.012C141.232 179.004 142.228 177.984 143.14 176.952C144.076 175.92 144.904 174.912 145.624 173.928C146.344 172.944 146.944 172.044 147.424 171.228C146.944 171.228 146.308 171.228 145.516 171.228C144.724 171.228 143.8 171.228 142.744 171.228C141.712 171.228 140.62 171.228 139.468 171.228C138.316 171.228 137.164 171.228 136.012 171.228C134.884 171.228 133.804 171.228 132.772 171.228C131.764 171.228 130.876 171.228 130.108 171.228C129.364 171.228 128.788 171.228 128.38 171.228C127.9 171.228 127.384 171.24 126.832 171.264C126.304 171.288 125.8 171.324 125.32 171.372C124.84 171.42 124.48 171.456 124.24 171.48V166.44C124.552 166.464 124.948 166.512 125.428 166.584C125.932 166.656 126.448 166.704 126.976 166.728C127.504 166.752 127.972 166.764 128.38 166.764C128.692 166.764 129.22 166.764 129.964 166.764C130.732 166.764 131.632 166.764 132.664 166.764C133.696 166.764 134.8 166.764 135.976 166.764C137.176 166.764 138.376 166.764 139.576 166.764C140.8 166.764 141.976 166.764 143.104 166.764C144.232 166.764 145.24 166.764 146.128 166.764C147.04 166.764 147.784 166.764 148.36 166.764C149.776 166.764 150.892 166.632 151.708 166.368L155.308 169.32ZM136.3 186.564C135.772 186.036 135.16 185.46 134.464 184.836C133.792 184.188 133.084 183.54 132.34 182.892C131.62 182.244 130.912 181.644 130.216 181.092C129.544 180.516 128.932 180.036 128.38 179.652L132.196 176.592C132.676 176.952 133.24 177.396 133.888 177.924C134.56 178.452 135.268 179.028 136.012 179.652C136.756 180.276 137.512 180.924 138.28 181.596C139.048 182.268 139.78 182.928 140.476 183.576C141.268 184.344 142.084 185.172 142.924 186.06C143.788 186.948 144.604 187.812 145.372 188.652C146.164 189.492 146.836 190.272 147.388 190.992L143.176 194.34C142.672 193.668 142.024 192.888 141.232 192C140.464 191.088 139.648 190.152 138.784 189.192C137.92 188.232 137.092 187.356 136.3 186.564ZM175.108 191.208C175.18 190.848 175.24 190.44 175.288 189.984C175.36 189.504 175.396 189.024 175.396 188.544C175.396 188.28 175.396 187.752 175.396 186.96C175.396 186.168 175.396 185.208 175.396 184.08C175.396 182.952 175.396 181.74 175.396 180.444C175.396 179.124 175.396 177.792 175.396 176.448C175.396 175.104 175.396 173.844 175.396 172.668C175.396 171.468 175.396 170.424 175.396 169.536C175.396 168.624 175.396 167.964 175.396 167.556C175.396 166.74 175.348 166.032 175.252 165.432C175.18 164.832 175.132 164.508 175.108 164.46H180.472C180.448 164.508 180.4 164.844 180.328 165.468C180.256 166.068 180.22 166.776 180.22 167.592C180.22 168 180.22 168.612 180.22 169.428C180.22 170.22 180.22 171.144 180.22 172.2C180.22 173.232 180.22 174.336 180.22 175.512C180.22 176.688 180.22 177.852 180.22 179.004C180.22 180.132 180.22 181.212 180.22 182.244C180.22 183.252 180.22 184.116 180.22 184.836C180.22 185.556 180.22 186.084 180.22 186.42C181.204 185.988 182.224 185.4 183.28 184.656C184.336 183.912 185.368 183.048 186.376 182.064C187.408 181.056 188.32 179.976 189.112 178.824L191.884 182.784C190.9 184.08 189.7 185.352 188.284 186.6C186.892 187.848 185.452 188.988 183.964 190.02C182.476 191.052 181.048 191.916 179.68 192.612C179.296 192.828 178.984 193.02 178.744 193.188C178.504 193.38 178.3 193.548 178.132 193.692L175.108 191.208ZM158.44 190.668C160.024 189.564 161.32 188.232 162.328 186.672C163.336 185.112 164.08 183.576 164.56 182.064C164.824 181.272 165.016 180.3 165.136 179.148C165.28 177.972 165.388 176.724 165.46 175.404C165.532 174.06 165.568 172.74 165.568 171.444C165.592 170.124 165.604 168.912 165.604 167.808C165.604 167.088 165.568 166.476 165.496 165.972C165.448 165.444 165.376 164.952 165.28 164.496H170.572C170.548 164.544 170.512 164.748 170.464 165.108C170.44 165.444 170.404 165.852 170.356 166.332C170.332 166.788 170.32 167.268 170.32 167.772C170.32 168.828 170.308 170.064 170.284 171.48C170.26 172.872 170.212 174.3 170.14 175.764C170.068 177.228 169.96 178.62 169.816 179.94C169.672 181.236 169.48 182.34 169.24 183.252C168.688 185.292 167.86 187.188 166.756 188.94C165.676 190.668 164.368 192.216 162.832 193.584L158.44 190.668ZM208.444 175.152C209.548 175.776 210.748 176.52 212.044 177.384C213.364 178.224 214.696 179.1 216.04 180.012C217.384 180.924 218.644 181.812 219.82 182.676C221.02 183.54 222.028 184.308 222.844 184.98L219.424 189.048C218.632 188.328 217.648 187.5 216.472 186.564C215.32 185.604 214.072 184.632 212.728 183.648C211.384 182.64 210.052 181.68 208.732 180.768C207.436 179.856 206.272 179.076 205.24 178.428L208.444 175.152ZM225.364 169.032C225.148 169.368 224.932 169.764 224.716 170.22C224.5 170.676 224.32 171.132 224.176 171.588C223.816 172.692 223.324 173.928 222.7 175.296C222.1 176.64 221.38 178.02 220.54 179.436C219.7 180.828 218.74 182.196 217.66 183.54C215.956 185.652 213.904 187.656 211.504 189.552C209.128 191.448 206.212 193.056 202.756 194.376L198.58 190.74C201.1 189.972 203.284 189.06 205.132 188.004C206.98 186.948 208.576 185.82 209.92 184.62C211.288 183.42 212.476 182.22 213.484 181.02C214.3 180.084 215.068 179.04 215.788 177.888C216.532 176.712 217.168 175.548 217.696 174.396C218.248 173.22 218.632 172.176 218.848 171.264H206.68L208.336 167.16H218.56C219.136 167.16 219.7 167.124 220.252 167.052C220.828 166.98 221.308 166.884 221.692 166.764L225.364 169.032ZM213.484 163.488C213.052 164.112 212.62 164.784 212.188 165.504C211.78 166.224 211.468 166.776 211.252 167.16C210.436 168.6 209.404 170.136 208.156 171.768C206.908 173.376 205.504 174.948 203.944 176.484C202.408 178.02 200.776 179.388 199.048 180.588L195.16 177.6C197.272 176.28 199.06 174.9 200.524 173.46C202.012 171.996 203.248 170.592 204.232 169.248C205.216 167.88 206.008 166.668 206.608 165.612C206.896 165.18 207.196 164.604 207.508 163.884C207.844 163.14 208.096 162.468 208.264 161.868L213.484 163.488ZM231.232 177.996C234.472 177.156 237.4 176.184 240.016 175.08C242.656 173.952 244.972 172.776 246.964 171.552C248.212 170.784 249.46 169.908 250.708 168.924C251.98 167.916 253.168 166.884 254.272 165.828C255.4 164.772 256.348 163.764 257.116 162.804L261.004 166.512C259.9 167.592 258.688 168.684 257.368 169.788C256.072 170.892 254.716 171.948 253.3 172.956C251.884 173.964 250.48 174.888 249.088 175.728C247.72 176.52 246.184 177.336 244.48 178.176C242.8 179.016 241.024 179.808 239.152 180.552C237.28 181.296 235.396 181.956 233.5 182.532L231.232 177.996ZM246.208 173.856L251.32 172.668V188.868C251.32 189.396 251.332 189.972 251.356 190.596C251.38 191.22 251.416 191.796 251.464 192.324C251.512 192.876 251.572 193.296 251.644 193.584H245.956C246.004 193.296 246.04 192.876 246.064 192.324C246.112 191.796 246.148 191.22 246.172 190.596C246.196 189.972 246.208 189.396 246.208 188.868V173.856ZM293.944 165.612C293.944 166.188 294.148 166.68 294.556 167.088C294.964 167.472 295.444 167.664 295.996 167.664C296.572 167.664 297.064 167.472 297.472 167.088C297.88 166.68 298.084 166.188 298.084 165.612C298.084 165.036 297.88 164.544 297.472 164.136C297.064 163.728 296.572 163.524 295.996 163.524C295.444 163.524 294.964 163.728 294.556 164.136C294.148 164.544 293.944 165.036 293.944 165.612ZM291.712 165.612C291.712 164.82 291.904 164.1 292.288 163.452C292.696 162.78 293.224 162.252 293.872 161.868C294.52 161.484 295.228 161.292 295.996 161.292C296.788 161.292 297.508 161.484 298.156 161.868C298.828 162.252 299.356 162.78 299.74 163.452C300.124 164.1 300.316 164.82 300.316 165.612C300.316 166.38 300.124 167.088 299.74 167.736C299.356 168.384 298.828 168.912 298.156 169.32C297.508 169.704 296.788 169.896 295.996 169.896C295.228 169.896 294.52 169.704 293.872 169.32C293.224 168.912 292.696 168.384 292.288 167.736C291.904 167.088 291.712 166.38 291.712 165.612ZM296.068 168.456C295.9 168.792 295.756 169.2 295.636 169.68C295.516 170.136 295.396 170.556 295.276 170.94C295.084 171.828 294.832 172.824 294.52 173.928C294.208 175.008 293.836 176.136 293.404 177.312C292.972 178.488 292.456 179.652 291.856 180.804C291.28 181.956 290.62 183.036 289.876 184.044C288.796 185.484 287.536 186.828 286.096 188.076C284.656 189.324 283.048 190.452 281.272 191.46C279.496 192.468 277.54 193.32 275.404 194.016L271.48 189.696C273.88 189.12 275.944 188.412 277.672 187.572C279.4 186.732 280.9 185.772 282.172 184.692C283.468 183.612 284.608 182.46 285.592 181.236C286.384 180.228 287.056 179.136 287.608 177.96C288.184 176.784 288.652 175.608 289.012 174.432C289.396 173.232 289.66 172.116 289.804 171.084C289.444 171.084 288.844 171.084 288.004 171.084C287.188 171.084 286.216 171.084 285.088 171.084C283.984 171.084 282.82 171.084 281.596 171.084C280.396 171.084 279.232 171.084 278.104 171.084C276.976 171.084 275.956 171.084 275.044 171.084C274.156 171.084 273.496 171.084 273.064 171.084C272.224 171.084 271.408 171.096 270.616 171.12C269.848 171.144 269.236 171.18 268.78 171.228V166.152C269.14 166.2 269.572 166.248 270.076 166.296C270.604 166.344 271.132 166.38 271.66 166.404C272.212 166.428 272.68 166.44 273.064 166.44C273.448 166.44 273.988 166.44 274.684 166.44C275.404 166.44 276.232 166.44 277.168 166.44C278.104 166.44 279.076 166.44 280.084 166.44C281.116 166.44 282.136 166.44 283.144 166.44C284.176 166.44 285.136 166.44 286.024 166.44C286.912 166.44 287.68 166.44 288.328 166.44C288.976 166.44 289.444 166.44 289.732 166.44C290.092 166.44 290.524 166.428 291.028 166.404C291.556 166.38 292.06 166.296 292.54 166.152L296.068 168.456Z" fill="white"/>
</g>
<defs>
<clipPath id="clip0_2_101">
<rect width="349" height="358" fill="white"/>
</clipPath>
</defs>
</svg>
