<svg width="1018" height="1452" viewBox="0 0 1018 1452" fill="none" xmlns="http://www.w3.org/2000/svg">
<path d="M1474.23 21.7393C1644.62 71.0633 1791.47 215.672 1877.79 391.669C1965.22 567.666 1992.13 776.172 1893.48 915.176C1795.95 1055.3 1572.87 1127.05 1423.78 1214.48C1273.57 1301.92 1196.22 1403.93 1096.45 1437.56C996.68 1471.19 873.37 1436.44 729.882 1418.51C587.515 1399.45 423.849 1397.21 275.877 1326.58C127.905 1255.96 -4.3732 1116.96 0.110802 973.468C4.5948 831.101 146.962 684.25 240.005 530.673C334.169 377.096 380.13 216.793 484.383 138.323C589.757 59.8532 754.544 63.2162 933.904 40.7962C1112.14 19.4972 1304.95 -27.5847 1474.23 21.7393Z" fill="url(#paint0_linear_2_162)"/>
<defs>
<linearGradient id="paint0_linear_2_162" x1="978.159" y1="0" x2="978.159" y2="1451.67" gradientUnits="userSpaceOnUse">
<stop stop-color="#FFCADF"/>
<stop offset="1" stop-color="#D4A2FF"/>
</linearGradient>
</defs>
</svg>
