<svg width="969" height="1403" viewBox="0 0 969 1403" fill="none" xmlns="http://www.w3.org/2000/svg">
<path d="M-284.908 199.514C-180.348 92.3996 -49.4978 -21.0188 75.6824 3.33614C200.863 27.6911 321.624 190.508 504.376 267.289C687.128 344.071 933.123 335.505 964.395 426.858C996.919 518.9 814.72 710.859 792.139 888.273C768.933 1063.86 904.717 1226.04 881.534 1312.66C858.351 1399.27 676.202 1410.32 540.34 1535.82C404.479 1661.31 314.281 1899.42 228.538 1859.68C142.17 1821.07 62.7609 1506 -89.9318 1374.56C-241.999 1244.95 -467.35 1298.98 -471.092 1249.46C-476.086 1199.26 -259.472 1045.51 -234.397 905.059C-211.2 765.06 -378.29 639.053 -423.327 525.299C-467.737 410.406 -388.842 308.456 -284.908 199.514Z" fill="url(#paint0_linear_2_165)"/>
<defs>
<linearGradient id="paint0_linear_2_165" x1="587.709" y1="198.65" x2="-197.174" y2="1625.75" gradientUnits="userSpaceOnUse">
<stop stop-color="#FFA7EC"/>
<stop offset="1" stop-color="#FC6BA5"/>
</linearGradient>
</defs>
</svg>
