<svg width="360" height="351" viewBox="0 0 360 351" fill="none" xmlns="http://www.w3.org/2000/svg">
<g clip-path="url(#clip0_2_97)">
<path d="M271.044 18.9961C298.639 32.4329 322.262 54.7617 338.144 81.6354C354.025 108.509 361.966 139.927 359.584 170.16C357.4 200.393 344.695 229.243 328.218 255.128C311.741 281.014 291.492 303.738 266.478 321.522C241.266 339.306 211.29 351.755 181.909 350.964C152.33 349.976 123.346 335.749 98.134 318.163C72.9221 300.379 51.6805 279.433 34.2108 254.338C16.7411 229.44 3.04329 200.393 0.462536 169.963C-2.11822 139.532 6.21959 107.719 22.4982 80.4498C38.5782 52.9833 62.4006 30.2593 90.1933 17.0201C117.986 3.5833 149.551 -0.368719 181.115 0.0264814C212.481 0.421682 243.649 5.3617 271.044 18.9961Z" fill="#742A83"/>
<path d="M37.332 149.272C37.884 148.84 38.388 148.408 38.844 147.976C39.324 147.52 39.84 147.016 40.392 146.464C40.8 146.032 41.268 145.504 41.796 144.88C42.324 144.232 42.888 143.536 43.488 142.792C44.088 142.048 44.688 141.304 45.288 140.56C45.912 139.792 46.5 139.084 47.052 138.436C48.324 136.996 49.56 136.228 50.76 136.132C51.96 136.012 53.22 136.6 54.54 137.896C55.356 138.688 56.196 139.588 57.06 140.596C57.948 141.604 58.812 142.612 59.652 143.62C60.492 144.628 61.272 145.516 61.992 146.284C62.568 146.932 63.18 147.604 63.828 148.3C64.5 148.996 65.208 149.728 65.952 150.496C66.696 151.264 67.476 152.032 68.292 152.8C69.108 153.568 69.936 154.336 70.776 155.104L67.068 159.424C66.228 158.584 65.34 157.672 64.404 156.688C63.468 155.704 62.544 154.696 61.632 153.664C60.744 152.632 59.904 151.684 59.112 150.82C58.392 149.932 57.624 148.996 56.808 148.012C56.016 147.004 55.248 146.044 54.504 145.132C53.76 144.22 53.1 143.452 52.524 142.828C52.116 142.348 51.744 142.048 51.408 141.928C51.096 141.808 50.784 141.832 50.472 142C50.184 142.168 49.872 142.48 49.536 142.936C49.176 143.392 48.756 143.932 48.276 144.556C47.82 145.18 47.328 145.852 46.8 146.572C46.296 147.268 45.804 147.952 45.324 148.624C44.844 149.272 44.4 149.848 43.992 150.352C43.584 150.952 43.176 151.552 42.768 152.152C42.384 152.752 42.036 153.292 41.724 153.772L37.332 149.272ZM92.772 133.252C92.604 133.492 92.412 133.768 92.196 134.08C92.004 134.368 91.812 134.656 91.62 134.944C91.188 135.592 90.708 136.348 90.18 137.212C89.676 138.052 89.148 138.952 88.596 139.912C88.044 140.848 87.504 141.784 86.976 142.72C86.472 143.656 85.992 144.52 85.536 145.312C86.208 144.928 86.892 144.652 87.588 144.484C88.284 144.316 88.98 144.232 89.676 144.232C91.02 144.232 92.076 144.64 92.844 145.456C93.636 146.248 94.068 147.4 94.14 148.912C94.164 149.44 94.176 150.076 94.176 150.82C94.176 151.564 94.176 152.308 94.176 153.052C94.2 153.796 94.236 154.42 94.284 154.924C94.356 155.62 94.608 156.124 95.04 156.436C95.496 156.724 96.024 156.868 96.624 156.868C97.392 156.868 98.088 156.64 98.712 156.184C99.36 155.728 99.936 155.104 100.44 154.312C100.944 153.496 101.376 152.584 101.736 151.576C102.12 150.544 102.444 149.476 102.708 148.372L106.596 151.54C105.972 153.58 105.18 155.38 104.22 156.94C103.26 158.476 102.084 159.664 100.692 160.504C99.324 161.368 97.716 161.8 95.868 161.8C94.548 161.8 93.444 161.56 92.556 161.08C91.668 160.624 91.008 160.024 90.576 159.28C90.144 158.512 89.904 157.684 89.856 156.796C89.808 156.148 89.772 155.428 89.748 154.636C89.748 153.844 89.736 153.076 89.712 152.332C89.712 151.564 89.688 150.94 89.64 150.46C89.592 149.836 89.388 149.344 89.028 148.984C88.668 148.624 88.164 148.444 87.516 148.444C86.724 148.444 85.968 148.696 85.248 149.2C84.528 149.704 83.868 150.364 83.268 151.18C82.692 151.996 82.188 152.896 81.756 153.88C81.516 154.408 81.264 155.032 81 155.752C80.736 156.472 80.484 157.216 80.244 157.984C80.004 158.752 79.776 159.472 79.56 160.144C79.344 160.84 79.164 161.428 79.02 161.908L73.944 160.18C74.4 158.98 74.952 157.612 75.6 156.076C76.272 154.516 77.004 152.884 77.796 151.18C78.588 149.476 79.392 147.784 80.208 146.104C81.024 144.424 81.804 142.84 82.548 141.352C83.292 139.84 83.952 138.532 84.528 137.428C85.128 136.3 85.584 135.448 85.896 134.872C86.136 134.392 86.412 133.852 86.724 133.252C87.036 132.652 87.348 131.968 87.66 131.2L92.772 133.252ZM121.356 131.452C121.26 132.196 121.164 133 121.068 133.864C120.996 134.728 120.936 135.52 120.888 136.24C120.864 137.224 120.816 138.424 120.744 139.84C120.696 141.232 120.648 142.696 120.6 144.232C120.576 145.768 120.54 147.28 120.492 148.768C120.468 150.256 120.456 151.552 120.456 152.656C120.456 153.856 120.672 154.816 121.104 155.536C121.56 156.232 122.16 156.736 122.904 157.048C123.648 157.336 124.488 157.48 125.424 157.48C126.912 157.48 128.268 157.288 129.492 156.904C130.716 156.496 131.832 155.956 132.84 155.284C133.848 154.612 134.748 153.832 135.54 152.944C136.356 152.056 137.088 151.12 137.736 150.136L141.012 154.096C140.436 154.96 139.68 155.872 138.744 156.832C137.808 157.792 136.692 158.692 135.396 159.532C134.124 160.372 132.648 161.056 130.968 161.584C129.288 162.112 127.428 162.376 125.388 162.376C123.42 162.376 121.704 162.064 120.24 161.44C118.8 160.84 117.672 159.904 116.856 158.632C116.064 157.336 115.668 155.668 115.668 153.628C115.668 152.644 115.68 151.528 115.704 150.28C115.728 149.008 115.764 147.688 115.812 146.32C115.86 144.952 115.896 143.62 115.92 142.324C115.944 141.004 115.968 139.816 115.992 138.76C116.016 137.704 116.028 136.864 116.028 136.24C116.028 135.376 115.992 134.536 115.92 133.72C115.848 132.88 115.728 132.1 115.56 131.38L121.356 131.452ZM164.772 133.252C164.604 133.492 164.412 133.768 164.196 134.08C164.004 134.368 163.812 134.656 163.62 134.944C163.188 135.592 162.708 136.348 162.18 137.212C161.676 138.052 161.148 138.952 160.596 139.912C160.044 140.848 159.504 141.784 158.976 142.72C158.472 143.656 157.992 144.52 157.536 145.312C158.208 144.928 158.892 144.652 159.588 144.484C160.284 144.316 160.98 144.232 161.676 144.232C163.02 144.232 164.076 144.64 164.844 145.456C165.636 146.248 166.068 147.4 166.14 148.912C166.164 149.44 166.176 150.076 166.176 150.82C166.176 151.564 166.176 152.308 166.176 153.052C166.2 153.796 166.236 154.42 166.284 154.924C166.356 155.62 166.608 156.124 167.04 156.436C167.496 156.724 168.024 156.868 168.624 156.868C169.392 156.868 170.088 156.64 170.712 156.184C171.36 155.728 171.936 155.104 172.44 154.312C172.944 153.496 173.376 152.584 173.736 151.576C174.12 150.544 174.444 149.476 174.708 148.372L178.596 151.54C177.972 153.58 177.18 155.38 176.22 156.94C175.26 158.476 174.084 159.664 172.692 160.504C171.324 161.368 169.716 161.8 167.868 161.8C166.548 161.8 165.444 161.56 164.556 161.08C163.668 160.624 163.008 160.024 162.576 159.28C162.144 158.512 161.904 157.684 161.856 156.796C161.808 156.148 161.772 155.428 161.748 154.636C161.748 153.844 161.736 153.076 161.712 152.332C161.712 151.564 161.688 150.94 161.64 150.46C161.592 149.836 161.388 149.344 161.028 148.984C160.668 148.624 160.164 148.444 159.516 148.444C158.724 148.444 157.968 148.696 157.248 149.2C156.528 149.704 155.868 150.364 155.268 151.18C154.692 151.996 154.188 152.896 153.756 153.88C153.516 154.408 153.264 155.032 153 155.752C152.736 156.472 152.484 157.216 152.244 157.984C152.004 158.752 151.776 159.472 151.56 160.144C151.344 160.84 151.164 161.428 151.02 161.908L145.944 160.18C146.4 158.98 146.952 157.612 147.6 156.076C148.272 154.516 149.004 152.884 149.796 151.18C150.588 149.476 151.392 147.784 152.208 146.104C153.024 144.424 153.804 142.84 154.548 141.352C155.292 139.84 155.952 138.532 156.528 137.428C157.128 136.3 157.584 135.448 157.896 134.872C158.136 134.392 158.412 133.852 158.724 133.252C159.036 132.652 159.348 131.968 159.66 131.2L164.772 133.252ZM207.9 133C207.9 133.552 208.092 134.02 208.476 134.404C208.86 134.764 209.328 134.944 209.88 134.944C210.408 134.944 210.864 134.764 211.248 134.404C211.632 134.02 211.824 133.552 211.824 133C211.824 132.472 211.632 132.016 211.248 131.632C210.864 131.248 210.408 131.056 209.88 131.056C209.328 131.056 208.86 131.248 208.476 131.632C208.092 132.016 207.9 132.472 207.9 133ZM205.704 133C205.704 132.232 205.884 131.536 206.244 130.912C206.628 130.288 207.132 129.784 207.756 129.4C208.404 129.016 209.112 128.824 209.88 128.824C210.648 128.824 211.344 129.016 211.968 129.4C212.592 129.784 213.084 130.288 213.444 130.912C213.828 131.536 214.02 132.232 214.02 133C214.02 133.768 213.828 134.476 213.444 135.124C213.084 135.748 212.592 136.252 211.968 136.636C211.344 136.996 210.648 137.176 209.88 137.176C209.112 137.176 208.404 136.996 207.756 136.636C207.132 136.252 206.628 135.748 206.244 135.124C205.884 134.476 205.704 133.768 205.704 133ZM200.736 131.596C200.712 131.764 200.676 132.04 200.628 132.424C200.58 132.808 200.532 133.216 200.484 133.648C200.436 134.056 200.412 134.416 200.412 134.728C200.412 135.448 200.412 136.24 200.412 137.104C200.412 137.968 200.412 138.832 200.412 139.696C200.412 140.536 200.412 141.304 200.412 142C200.412 142.48 200.412 143.152 200.412 144.016C200.412 144.88 200.412 145.852 200.412 146.932C200.412 148.012 200.412 149.14 200.412 150.316C200.412 151.468 200.412 152.596 200.412 153.7C200.412 154.78 200.412 155.764 200.412 156.652C200.412 157.516 200.412 158.2 200.412 158.704C200.412 159.736 200.1 160.552 199.476 161.152C198.876 161.776 197.94 162.088 196.668 162.088C196.02 162.088 195.36 162.076 194.688 162.052C194.016 162.028 193.356 161.992 192.708 161.944C192.06 161.896 191.424 161.836 190.8 161.764L190.368 157.3C191.136 157.444 191.88 157.552 192.6 157.624C193.344 157.696 193.932 157.732 194.364 157.732C194.844 157.732 195.18 157.636 195.372 157.444C195.564 157.228 195.672 156.892 195.696 156.436C195.696 156.22 195.696 155.752 195.696 155.032C195.72 154.312 195.732 153.46 195.732 152.476C195.732 151.492 195.732 150.448 195.732 149.344C195.732 148.24 195.732 147.184 195.732 146.176C195.732 145.168 195.732 144.292 195.732 143.548C195.732 142.804 195.732 142.288 195.732 142C195.732 141.568 195.732 140.92 195.732 140.056C195.732 139.168 195.732 138.232 195.732 137.248C195.732 136.264 195.732 135.424 195.732 134.728C195.732 134.248 195.696 133.684 195.624 133.036C195.552 132.364 195.48 131.884 195.408 131.596H200.736ZM183.096 137.32C183.648 137.392 184.224 137.464 184.824 137.536C185.424 137.584 186.012 137.608 186.588 137.608C186.876 137.608 187.452 137.608 188.316 137.608C189.204 137.608 190.26 137.608 191.484 137.608C192.708 137.608 194.016 137.608 195.408 137.608C196.824 137.608 198.24 137.608 199.656 137.608C201.096 137.608 202.428 137.608 203.652 137.608C204.9 137.608 205.98 137.608 206.892 137.608C207.804 137.608 208.44 137.608 208.8 137.608C209.304 137.608 209.892 137.584 210.564 137.536C211.26 137.488 211.86 137.428 212.364 137.356V142.072C211.812 142.024 211.212 142 210.564 142C209.916 141.976 209.34 141.964 208.836 141.964C208.476 141.964 207.84 141.964 206.928 141.964C206.04 141.964 204.972 141.964 203.724 141.964C202.5 141.964 201.18 141.964 199.764 141.964C198.348 141.964 196.932 141.964 195.516 141.964C194.1 141.964 192.78 141.964 191.556 141.964C190.332 141.964 189.276 141.964 188.388 141.964C187.524 141.964 186.924 141.964 186.588 141.964C186.06 141.964 185.472 141.976 184.824 142C184.2 142.024 183.624 142.06 183.096 142.108V137.32ZM192.276 147.076C191.868 147.892 191.376 148.768 190.8 149.704C190.224 150.64 189.6 151.576 188.928 152.512C188.28 153.448 187.644 154.324 187.02 155.14C186.396 155.932 185.832 156.592 185.328 157.12L181.44 154.456C182.04 153.904 182.652 153.256 183.276 152.512C183.924 151.744 184.548 150.94 185.148 150.1C185.772 149.26 186.336 148.42 186.84 147.58C187.368 146.74 187.824 145.936 188.208 145.168L192.276 147.076ZM207.756 145.06C208.212 145.636 208.716 146.32 209.268 147.112C209.844 147.904 210.42 148.756 210.996 149.668C211.572 150.556 212.112 151.432 212.616 152.296C213.12 153.136 213.552 153.88 213.912 154.528L209.664 156.832C209.28 156.064 208.836 155.236 208.332 154.348C207.852 153.46 207.348 152.572 206.82 151.684C206.292 150.796 205.764 149.968 205.236 149.2C204.732 148.408 204.264 147.736 203.832 147.184L207.756 145.06ZM232.164 131.812C231.948 132.268 231.732 132.772 231.516 133.324C231.3 133.876 231.12 134.344 230.976 134.728C230.76 135.328 230.496 136 230.184 136.744C229.896 137.488 229.584 138.244 229.248 139.012C228.936 139.756 228.612 140.44 228.276 141.064C227.82 141.976 227.244 142.96 226.548 144.016C225.876 145.048 225.156 146.044 224.388 147.004C223.62 147.94 222.828 148.756 222.012 149.452L217.512 146.716C218.16 146.26 218.772 145.72 219.348 145.096C219.948 144.472 220.512 143.824 221.04 143.152C221.592 142.48 222.096 141.82 222.552 141.172C223.008 140.5 223.404 139.876 223.74 139.3C224.22 138.484 224.628 137.632 224.964 136.744C225.324 135.856 225.612 135.076 225.828 134.404C226.044 133.804 226.212 133.18 226.332 132.532C226.476 131.86 226.56 131.248 226.584 130.696L232.164 131.812ZM226.476 137.356C226.884 137.356 227.484 137.356 228.276 137.356C229.068 137.356 229.992 137.356 231.048 137.356C232.104 137.356 233.208 137.356 234.36 137.356C235.536 137.356 236.7 137.356 237.852 137.356C239.028 137.356 240.12 137.356 241.128 137.356C242.16 137.356 243.048 137.356 243.792 137.356C244.56 137.356 245.124 137.356 245.484 137.356C245.964 137.356 246.564 137.344 247.284 137.32C248.004 137.272 248.652 137.2 249.228 137.104V142.036C248.556 141.964 247.86 141.928 247.14 141.928C246.444 141.904 245.892 141.892 245.484 141.892C245.076 141.892 244.392 141.892 243.432 141.892C242.472 141.892 241.356 141.892 240.084 141.892C238.812 141.892 237.468 141.892 236.052 141.892C234.66 141.892 233.304 141.892 231.984 141.892C230.664 141.892 229.488 141.892 228.456 141.892C227.424 141.892 226.632 141.892 226.08 141.892L226.476 137.356ZM240.516 139.948C240.468 142.612 240.192 145.06 239.688 147.292C239.184 149.5 238.464 151.504 237.528 153.304C236.616 155.104 235.488 156.736 234.144 158.2C232.8 159.64 231.264 160.9 229.536 161.98L224.676 158.704C225.324 158.44 225.948 158.14 226.548 157.804C227.148 157.444 227.664 157.084 228.096 156.724C229.128 155.932 230.076 155.032 230.94 154.024C231.828 152.992 232.608 151.804 233.28 150.46C233.976 149.092 234.516 147.544 234.9 145.816C235.308 144.088 235.524 142.132 235.548 139.948H240.516ZM258.156 133.54C258.684 133.564 259.236 133.6 259.812 133.648C260.388 133.696 261.012 133.72 261.684 133.72C262.188 133.72 262.884 133.72 263.772 133.72C264.66 133.72 265.668 133.72 266.796 133.72C267.924 133.72 269.088 133.72 270.288 133.72C271.488 133.72 272.652 133.72 273.78 133.72C274.908 133.72 275.928 133.72 276.84 133.72C277.752 133.72 278.472 133.72 279 133.72C279.624 133.72 280.212 133.708 280.764 133.684C281.316 133.636 281.808 133.588 282.24 133.54V138.04C281.784 138.016 281.292 137.992 280.764 137.968C280.26 137.944 279.672 137.932 279 137.932C278.472 137.932 277.728 137.932 276.768 137.932C275.808 137.932 274.716 137.932 273.492 137.932C272.292 137.932 271.056 137.932 269.784 137.932C268.536 137.932 267.348 137.932 266.22 137.932C265.092 137.932 264.12 137.932 263.304 137.932C262.512 137.932 261.972 137.932 261.684 137.932C261.012 137.932 260.388 137.944 259.812 137.968C259.236 137.968 258.684 137.992 258.156 138.04V133.54ZM270.54 146.212C270.54 146.644 270.54 147.22 270.54 147.94C270.54 148.66 270.54 149.428 270.54 150.244C270.54 151.036 270.54 151.768 270.54 152.44C270.54 153.112 270.54 153.604 270.54 153.916C270.54 154.9 270.864 155.596 271.512 156.004C272.16 156.412 273.204 156.616 274.644 156.616C276.276 156.616 277.872 156.568 279.432 156.472C280.992 156.376 282.492 156.256 283.932 156.112L283.608 160.972C282.84 161.02 281.904 161.068 280.8 161.116C279.72 161.164 278.568 161.2 277.344 161.224C276.12 161.248 274.944 161.26 273.816 161.26C271.632 161.26 269.94 161.02 268.74 160.54C267.564 160.06 266.748 159.388 266.292 158.524C265.836 157.636 265.608 156.58 265.608 155.356C265.608 154.78 265.608 154.072 265.608 153.232C265.608 152.392 265.608 151.516 265.608 150.604C265.608 149.692 265.608 148.84 265.608 148.048C265.608 147.256 265.608 146.596 265.608 146.068C265.608 145.78 265.608 145.324 265.608 144.7C265.608 144.076 265.608 143.368 265.608 142.576C265.608 141.76 265.608 140.968 265.608 140.2C265.608 139.432 265.608 138.748 265.608 138.148C265.608 137.524 265.608 137.104 265.608 136.888H270.54C270.54 137.104 270.54 137.548 270.54 138.22C270.54 138.892 270.54 139.672 270.54 140.56C270.54 141.424 270.54 142.276 270.54 143.116C270.54 143.956 270.54 144.664 270.54 145.24C270.54 145.816 270.54 146.14 270.54 146.212ZM255.78 143.872C256.308 143.896 256.956 143.932 257.724 143.98C258.516 144.028 259.188 144.052 259.74 144.052C260.22 144.052 260.916 144.052 261.828 144.052C262.764 144.052 263.832 144.052 265.032 144.052C266.256 144.052 267.54 144.052 268.884 144.052C270.252 144.052 271.596 144.052 272.916 144.052C274.236 144.052 275.472 144.052 276.624 144.052C277.8 144.052 278.796 144.052 279.612 144.052C280.452 144.052 281.052 144.052 281.412 144.052C281.676 144.052 282.024 144.04 282.456 144.016C282.888 143.992 283.32 143.98 283.752 143.98C284.208 143.956 284.592 143.932 284.904 143.908L284.94 148.516C284.46 148.468 283.872 148.444 283.176 148.444C282.48 148.42 281.928 148.408 281.52 148.408C281.16 148.408 280.548 148.408 279.684 148.408C278.844 148.408 277.836 148.408 276.66 148.408C275.484 148.408 274.224 148.408 272.88 148.408C271.536 148.408 270.192 148.408 268.848 148.408C267.504 148.408 266.22 148.408 264.996 148.408C263.796 148.408 262.74 148.408 261.828 148.408C260.916 148.408 260.22 148.408 259.74 148.408C259.236 148.408 258.588 148.432 257.796 148.48C257.004 148.504 256.332 148.54 255.78 148.588V143.872ZM296.676 132.64C297.3 133.072 298.032 133.6 298.872 134.224C299.712 134.848 300.576 135.532 301.464 136.276C302.376 136.996 303.228 137.704 304.02 138.4C304.812 139.096 305.46 139.72 305.964 140.272L302.292 144.016C301.836 143.512 301.236 142.912 300.492 142.216C299.748 141.52 298.944 140.8 298.08 140.056C297.216 139.312 296.364 138.604 295.524 137.932C294.684 137.26 293.94 136.696 293.292 136.24L296.676 132.64ZM292.176 156.616C294.048 156.352 295.812 155.98 297.468 155.5C299.124 155.02 300.66 154.468 302.076 153.844C303.492 153.22 304.788 152.572 305.964 151.9C308.004 150.676 309.876 149.284 311.58 147.724C313.284 146.164 314.772 144.544 316.044 142.864C317.316 141.16 318.324 139.504 319.068 137.896L321.876 142.972C320.964 144.58 319.836 146.188 318.492 147.796C317.172 149.404 315.672 150.94 313.992 152.404C312.312 153.844 310.5 155.14 308.556 156.292C307.332 157.036 306.012 157.744 304.596 158.416C303.18 159.064 301.68 159.64 300.096 160.144C298.536 160.672 296.904 161.08 295.2 161.368L292.176 156.616Z" fill="white"/>
</g>
<defs>
<clipPath id="clip0_2_97">
<rect width="360" height="351" fill="white"/>
</clipPath>
</defs>
</svg>
