<svg width="349" height="354" viewBox="0 0 349 354" fill="none" xmlns="http://www.w3.org/2000/svg">
<g clip-path="url(#clip0_2_105)">
<path d="M278.809 33.4882C308.301 56.0506 329.677 88.5088 340.563 123.936C351.647 159.363 352.043 197.758 340.365 231.8C328.489 265.841 304.738 295.529 275.048 317.299C245.359 338.872 209.93 352.726 173.313 353.914C136.894 355.101 99.485 344.018 71.379 321.851C43.273 299.487 24.2717 266.435 12.198 230.612C0.322275 194.987 -5.02182 156.79 6.06223 123.936C17.1463 91.2796 44.4606 64.3631 75.1396 41.9986C106.017 19.832 140.061 2.61338 175.886 0.238393C211.711 -1.93868 249.318 10.9258 278.809 33.4882Z" fill="#EE99FF"/>
<path d="M121.464 106.592H142.536V109.064H121.464V106.592ZM130.368 104.576H133.32V107.816H130.368V104.576ZM122.4 116.288H139.968V118.664H125.208V127.16H122.4V116.288ZM138.888 116.288H141.768V124.112C141.768 124.768 141.688 125.296 141.528 125.696C141.368 126.112 141.056 126.432 140.592 126.656C140.128 126.864 139.576 126.992 138.936 127.04C138.296 127.088 137.536 127.112 136.656 127.112C136.608 126.712 136.496 126.248 136.32 125.72C136.144 125.208 135.96 124.776 135.768 124.424C136.328 124.44 136.864 124.456 137.376 124.472C137.904 124.472 138.248 124.464 138.408 124.448C138.6 124.432 138.728 124.4 138.792 124.352C138.856 124.304 138.888 124.208 138.888 124.064V116.288ZM127.368 119.768H129.864V126.272H127.368V119.768ZM128.64 119.768H136.584V125.168H128.64V123.224H134.064V121.712H128.64V119.768ZM128.136 111.896V113.36H135.672V111.896H128.136ZM125.4 109.976H138.6V115.28H125.4V109.976ZM157.608 107.96C157.512 107.688 157.4 107.352 157.272 106.952C157.144 106.552 157 106.152 156.84 105.752L160.08 105.368C160.208 105.992 160.352 106.616 160.512 107.24C160.672 107.848 160.848 108.448 161.04 109.04C161.232 109.616 161.424 110.16 161.616 110.672C161.984 111.664 162.416 112.64 162.912 113.6C163.424 114.544 163.872 115.288 164.256 115.832C164.464 116.136 164.672 116.424 164.88 116.696C165.104 116.952 165.328 117.2 165.552 117.44L164.064 119.6C163.728 119.536 163.304 119.472 162.792 119.408C162.28 119.328 161.72 119.256 161.112 119.192C160.52 119.128 159.92 119.064 159.312 119C158.72 118.936 158.176 118.888 157.68 118.856L157.92 116.312C158.32 116.344 158.744 116.384 159.192 116.432C159.64 116.464 160.056 116.496 160.44 116.528C160.84 116.56 161.168 116.584 161.424 116.6C161.136 116.136 160.832 115.608 160.512 115.016C160.192 114.424 159.88 113.808 159.576 113.168C159.272 112.512 158.992 111.856 158.736 111.2C158.48 110.528 158.256 109.92 158.064 109.376C157.888 108.832 157.736 108.36 157.608 107.96ZM148.872 109.088C150.36 109.264 151.76 109.384 153.072 109.448C154.384 109.512 155.608 109.528 156.744 109.496C157.88 109.464 158.92 109.392 159.864 109.28C160.6 109.184 161.312 109.08 162 108.968C162.704 108.856 163.392 108.72 164.064 108.56C164.752 108.4 165.4 108.224 166.008 108.032L166.392 111.056C165.864 111.2 165.288 111.336 164.664 111.464C164.056 111.592 163.424 111.712 162.768 111.824C162.112 111.92 161.464 112.008 160.824 112.088C159.208 112.264 157.432 112.368 155.496 112.4C153.56 112.432 151.368 112.352 148.92 112.16L148.872 109.088ZM153.672 117.272C153.304 117.832 153.016 118.384 152.808 118.928C152.6 119.456 152.496 119.984 152.496 120.512C152.496 121.52 152.936 122.256 153.816 122.72C154.696 123.168 155.952 123.392 157.584 123.392C158.896 123.392 160.08 123.336 161.136 123.224C162.208 123.112 163.168 122.976 164.016 122.816L163.848 125.84C163.176 125.968 162.296 126.096 161.208 126.224C160.136 126.352 158.864 126.416 157.392 126.416C155.776 126.4 154.368 126.184 153.168 125.768C151.968 125.368 151.04 124.768 150.384 123.968C149.728 123.152 149.4 122.176 149.4 121.04C149.4 120.304 149.504 119.584 149.712 118.88C149.936 118.16 150.256 117.392 150.672 116.576L153.672 117.272ZM132.388 169.575C130.189 169.567 128.297 169.026 126.712 167.952C125.135 166.878 123.92 165.322 123.068 163.286C122.224 161.249 121.807 158.798 121.815 155.935C121.815 153.08 122.237 150.646 123.081 148.635C123.933 146.624 125.148 145.094 126.724 144.045C128.31 142.989 130.197 142.46 132.388 142.46C134.578 142.46 136.462 142.989 138.038 144.045C139.624 145.102 140.842 146.636 141.695 148.648C142.547 150.651 142.969 153.08 142.96 155.935C142.96 158.807 142.534 161.261 141.682 163.298C140.838 165.335 139.628 166.891 138.051 167.964C136.474 169.038 134.587 169.575 132.388 169.575ZM132.388 164.986C133.888 164.986 135.085 164.232 135.98 162.723C136.875 161.214 137.318 158.952 137.31 155.935C137.31 153.949 137.105 152.295 136.696 150.974C136.295 149.653 135.724 148.661 134.983 147.996C134.25 147.331 133.385 146.999 132.388 146.999C130.896 146.999 129.703 147.744 128.808 149.236C127.913 150.727 127.462 152.96 127.453 155.935C127.453 157.946 127.653 159.625 128.054 160.972C128.463 162.31 129.038 163.315 129.78 163.989C130.521 164.653 131.391 164.986 132.388 164.986ZM151.247 169.332C150.403 169.332 149.679 169.034 149.074 168.438C148.477 167.832 148.179 167.108 148.179 166.264C148.179 165.429 148.477 164.713 149.074 164.116C149.679 163.52 150.403 163.222 151.247 163.222C152.065 163.222 152.781 163.52 153.395 164.116C154.008 164.713 154.315 165.429 154.315 166.264C154.315 166.827 154.17 167.342 153.881 167.811C153.599 168.271 153.229 168.642 152.768 168.923C152.308 169.196 151.801 169.332 151.247 169.332ZM169.729 169.358C167.82 169.358 166.12 169.03 164.628 168.374C163.145 167.709 161.973 166.797 161.113 165.638C160.26 164.47 159.821 163.124 159.796 161.598H165.37C165.404 162.237 165.613 162.8 165.996 163.286C166.388 163.763 166.908 164.134 167.556 164.398C168.204 164.662 168.932 164.794 169.742 164.794C170.586 164.794 171.331 164.645 171.979 164.347C172.627 164.048 173.134 163.635 173.5 163.107C173.867 162.578 174.05 161.969 174.05 161.278C174.05 160.58 173.854 159.962 173.462 159.425C173.079 158.879 172.525 158.453 171.8 158.146C171.084 157.839 170.232 157.686 169.243 157.686H166.802V153.621H169.243C170.079 153.621 170.816 153.476 171.455 153.186C172.103 152.896 172.606 152.496 172.963 151.984C173.321 151.464 173.5 150.859 173.5 150.169C173.5 149.513 173.343 148.938 173.027 148.443C172.721 147.94 172.286 147.548 171.723 147.267C171.169 146.986 170.522 146.845 169.78 146.845C169.03 146.845 168.344 146.982 167.722 147.254C167.1 147.518 166.601 147.898 166.226 148.392C165.851 148.886 165.651 149.466 165.625 150.131H160.32C160.346 148.622 160.776 147.293 161.611 146.142C162.446 144.991 163.571 144.092 164.986 143.445C166.409 142.788 168.016 142.46 169.806 142.46C171.613 142.46 173.194 142.788 174.549 143.445C175.904 144.101 176.956 144.987 177.706 146.104C178.465 147.212 178.84 148.456 178.831 149.837C178.84 151.303 178.384 152.526 177.463 153.506C176.552 154.486 175.363 155.108 173.897 155.372V155.577C175.823 155.824 177.289 156.493 178.294 157.584C179.309 158.666 179.811 160.021 179.803 161.649C179.811 163.141 179.381 164.466 178.512 165.625C177.651 166.784 176.462 167.696 174.945 168.361C173.428 169.026 171.689 169.358 169.729 169.358ZM185.993 169V149.364H191.183V152.828H191.414C191.823 151.678 192.505 150.77 193.459 150.105C194.414 149.44 195.556 149.108 196.885 149.108C198.232 149.108 199.378 149.445 200.324 150.118C201.27 150.783 201.901 151.686 202.216 152.828H202.421C202.821 151.703 203.546 150.804 204.594 150.131C205.651 149.449 206.899 149.108 208.34 149.108C210.172 149.108 211.659 149.692 212.801 150.859C213.952 152.018 214.527 153.663 214.527 155.794V169H209.094V156.868C209.094 155.777 208.804 154.959 208.225 154.413C207.645 153.868 206.921 153.595 206.051 153.595C205.063 153.595 204.291 153.911 203.737 154.541C203.183 155.163 202.906 155.986 202.906 157.009V169H197.627V156.753C197.627 155.79 197.35 155.023 196.796 154.452C196.25 153.881 195.53 153.595 194.635 153.595C194.03 153.595 193.485 153.749 192.999 154.055C192.522 154.354 192.142 154.776 191.861 155.321C191.58 155.858 191.439 156.489 191.439 157.213V169H185.993ZM121.104 197.184H142.968V199.464H121.104V197.184ZM121.248 181.872H142.8V184.128H121.248V181.872ZM122.88 193.752H141.408V195.936H122.88V193.752ZM130.44 179.856H133.344V198.336H130.44V179.856ZM139.248 177.624L140.592 179.856C139.424 180.048 138.144 180.216 136.752 180.36C135.376 180.488 133.944 180.6 132.456 180.696C130.968 180.792 129.472 180.872 127.968 180.936C126.464 180.984 125.016 181.016 123.624 181.032C123.608 180.696 123.536 180.32 123.408 179.904C123.28 179.472 123.16 179.104 123.048 178.8C124.44 178.768 125.872 178.72 127.344 178.656C128.832 178.592 130.288 178.512 131.712 178.416C133.152 178.32 134.512 178.208 135.792 178.08C137.088 177.936 138.24 177.784 139.248 177.624ZM126.48 189.72V190.8H137.568V189.72H126.48ZM126.48 186.936V187.992H137.568V186.936H126.48ZM123.672 185.04H140.496V192.696H123.672V185.04ZM157.608 180.96C157.512 180.688 157.4 180.352 157.272 179.952C157.144 179.552 157 179.152 156.84 178.752L160.08 178.368C160.208 178.992 160.352 179.616 160.512 180.24C160.672 180.848 160.848 181.448 161.04 182.04C161.232 182.616 161.424 183.16 161.616 183.672C161.984 184.664 162.416 185.64 162.912 186.6C163.424 187.544 163.872 188.288 164.256 188.832C164.464 189.136 164.672 189.424 164.88 189.696C165.104 189.952 165.328 190.2 165.552 190.44L164.064 192.6C163.728 192.536 163.304 192.472 162.792 192.408C162.28 192.328 161.72 192.256 161.112 192.192C160.52 192.128 159.92 192.064 159.312 192C158.72 191.936 158.176 191.888 157.68 191.856L157.92 189.312C158.32 189.344 158.744 189.384 159.192 189.432C159.64 189.464 160.056 189.496 160.44 189.528C160.84 189.56 161.168 189.584 161.424 189.6C161.136 189.136 160.832 188.608 160.512 188.016C160.192 187.424 159.88 186.808 159.576 186.168C159.272 185.512 158.992 184.856 158.736 184.2C158.48 183.528 158.256 182.92 158.064 182.376C157.888 181.832 157.736 181.36 157.608 180.96ZM148.872 182.088C150.36 182.264 151.76 182.384 153.072 182.448C154.384 182.512 155.608 182.528 156.744 182.496C157.88 182.464 158.92 182.392 159.864 182.28C160.6 182.184 161.312 182.08 162 181.968C162.704 181.856 163.392 181.72 164.064 181.56C164.752 181.4 165.4 181.224 166.008 181.032L166.392 184.056C165.864 184.2 165.288 184.336 164.664 184.464C164.056 184.592 163.424 184.712 162.768 184.824C162.112 184.92 161.464 185.008 160.824 185.088C159.208 185.264 157.432 185.368 155.496 185.4C153.56 185.432 151.368 185.352 148.92 185.16L148.872 182.088ZM153.672 190.272C153.304 190.832 153.016 191.384 152.808 191.928C152.6 192.456 152.496 192.984 152.496 193.512C152.496 194.52 152.936 195.256 153.816 195.72C154.696 196.168 155.952 196.392 157.584 196.392C158.896 196.392 160.08 196.336 161.136 196.224C162.208 196.112 163.168 195.976 164.016 195.816L163.848 198.84C163.176 198.968 162.296 199.096 161.208 199.224C160.136 199.352 158.864 199.416 157.392 199.416C155.776 199.4 154.368 199.184 153.168 198.768C151.968 198.368 151.04 197.768 150.384 196.968C149.728 196.152 149.4 195.176 149.4 194.04C149.4 193.304 149.504 192.584 149.712 191.88C149.936 191.16 150.256 190.392 150.672 189.576L153.672 190.272ZM121.726 237.398V233.038L132.656 215.818H136.415V221.852H134.19L127.3 232.757V232.962H142.832V237.398H121.726ZM134.293 242V236.068L134.395 234.138V215.818H139.585V242H134.293ZM151.423 242.332C150.579 242.332 149.855 242.034 149.249 241.438C148.653 240.832 148.355 240.108 148.355 239.264C148.355 238.429 148.653 237.713 149.249 237.116C149.855 236.52 150.579 236.222 151.423 236.222C152.241 236.222 152.957 236.52 153.571 237.116C154.184 237.713 154.491 238.429 154.491 239.264C154.491 239.827 154.346 240.342 154.056 240.811C153.775 241.271 153.404 241.642 152.944 241.923C152.484 242.196 151.977 242.332 151.423 242.332ZM170.282 242.575C168.083 242.567 166.191 242.026 164.606 240.952C163.029 239.878 161.815 238.322 160.962 236.286C160.119 234.249 159.701 231.798 159.71 228.935C159.71 226.08 160.131 223.646 160.975 221.635C161.827 219.624 163.042 218.094 164.619 217.045C166.204 215.989 168.092 215.46 170.282 215.46C172.472 215.46 174.356 215.989 175.933 217.045C177.518 218.102 178.737 219.636 179.589 221.648C180.441 223.651 180.863 226.08 180.854 228.935C180.854 231.807 180.428 234.261 179.576 236.298C178.732 238.335 177.522 239.891 175.945 240.964C174.369 242.038 172.481 242.575 170.282 242.575ZM170.282 237.986C171.782 237.986 172.979 237.232 173.874 235.723C174.769 234.214 175.212 231.952 175.204 228.935C175.204 226.949 174.999 225.295 174.59 223.974C174.19 222.653 173.619 221.661 172.877 220.996C172.144 220.331 171.279 219.999 170.282 219.999C168.791 219.999 167.597 220.744 166.702 222.236C165.808 223.727 165.356 225.96 165.347 228.935C165.347 230.946 165.548 232.625 165.948 233.972C166.357 235.31 166.933 236.315 167.674 236.989C168.416 237.653 169.285 237.986 170.282 237.986ZM191.947 236.349L191.96 229.817H192.753L199.043 222.364H205.294L196.844 232.233H195.552L191.947 236.349ZM187.013 242V215.818H192.459V242H187.013ZM199.285 242L193.507 233.447L197.138 229.599L205.665 242H199.285ZM218.164 249.773C216.4 249.773 214.887 249.53 213.625 249.044C212.373 248.567 211.375 247.915 210.634 247.088C209.892 246.261 209.411 245.332 209.189 244.301L214.226 243.624C214.38 244.016 214.623 244.382 214.955 244.723C215.287 245.064 215.726 245.337 216.272 245.541C216.826 245.754 217.499 245.861 218.292 245.861C219.476 245.861 220.452 245.571 221.219 244.991C221.995 244.42 222.383 243.462 222.383 242.115V238.523H222.152C221.914 239.068 221.556 239.584 221.079 240.07C220.601 240.555 219.988 240.952 219.238 241.259C218.488 241.565 217.593 241.719 216.553 241.719C215.079 241.719 213.736 241.378 212.526 240.696C211.324 240.006 210.365 238.953 209.65 237.538C208.942 236.115 208.589 234.317 208.589 232.143C208.589 229.919 208.951 228.061 209.675 226.57C210.4 225.078 211.363 223.962 212.564 223.22C213.775 222.479 215.1 222.108 216.54 222.108C217.64 222.108 218.56 222.295 219.302 222.67C220.043 223.037 220.64 223.497 221.091 224.051C221.552 224.597 221.905 225.134 222.152 225.662H222.357V222.364H227.765V242.192C227.765 243.862 227.356 245.26 226.537 246.385C225.719 247.51 224.586 248.354 223.137 248.916C221.696 249.487 220.039 249.773 218.164 249.773ZM218.279 237.628C219.157 237.628 219.898 237.411 220.503 236.976C221.117 236.533 221.586 235.902 221.91 235.084C222.242 234.257 222.408 233.268 222.408 232.118C222.408 230.967 222.246 229.97 221.922 229.126C221.598 228.274 221.13 227.614 220.516 227.145C219.902 226.676 219.157 226.442 218.279 226.442C217.384 226.442 216.63 226.685 216.016 227.17C215.402 227.648 214.938 228.312 214.623 229.165C214.307 230.017 214.15 231.001 214.15 232.118C214.15 233.251 214.307 234.232 214.623 235.058C214.946 235.876 215.411 236.511 216.016 236.963C216.63 237.406 217.384 237.628 218.279 237.628Z" fill="white"/>
</g>
<defs>
<clipPath id="clip0_2_105">
<rect width="349" height="354" fill="white"/>
</clipPath>
</defs>
</svg>
